<svg width="236" height="86" viewBox="0 0 236 86" fill="none" xmlns="http://www.w3.org/2000/svg">
<g clip-path="url(#clip0_715_11979)">
<path d="M100.696 27.1631C105.459 27.1631 109.442 28.8245 112.645 32.1487C115.848 35.4729 117.449 39.5989 117.449 44.5268C117.449 49.4547 115.848 53.5807 112.645 56.9049C109.442 60.2291 105.459 61.8905 100.696 61.8905H86.6536V27.1618H100.696V27.1631ZM100.696 53.3089C103.093 53.3089 105.048 52.507 106.56 50.9033C108.07 49.2996 108.826 47.1741 108.826 44.5282C108.826 41.8823 108.07 39.7582 106.56 38.1531C105.048 36.5494 103.093 35.7475 100.696 35.7475H95.7201V53.3103H100.696V53.3089Z" fill="white"/>
<path d="M127.206 25.0294C125.991 25.0294 124.946 24.5914 124.077 23.714C123.206 22.838 122.771 21.8041 122.771 20.6137C122.771 19.4232 123.206 18.3399 124.077 17.4625C124.946 16.5865 125.991 16.1471 127.206 16.1471C128.421 16.1471 129.414 16.5865 130.285 17.4625C131.154 18.3399 131.591 19.3903 131.591 20.6137C131.591 21.8371 131.156 22.838 130.285 23.714C129.414 24.5914 128.388 25.0294 127.206 25.0294ZM122.771 27.1632H131.591V61.8919H122.771V27.1632Z" fill="white"/>
<path d="M152.285 27.1631C157.048 27.1631 161.031 28.8245 164.234 32.1487C167.437 35.4729 169.038 39.5989 169.038 44.5268C169.038 49.4547 167.437 53.5807 164.234 56.9049C161.031 60.2291 157.048 61.8905 152.285 61.8905H138.242V27.1618H152.285V27.1631ZM152.285 53.3089C154.682 53.3089 156.637 52.507 158.148 50.9033C159.66 49.2996 160.415 47.1741 160.415 44.5282C160.415 41.8823 159.658 39.7582 158.148 38.1531C156.637 36.5494 154.682 35.7475 152.285 35.7475H147.309V53.3103H152.285V53.3089Z" fill="white"/>
<path d="M194.598 61.8919L192.945 56.8816H181.207L179.719 61.8919H170.172L181.163 27.1631H192.268L203.678 61.8919H194.598ZM183.476 49.2405H190.423L186.926 37.4322L183.476 49.2405Z" fill="white"/>
<path d="M236 61.8919H226.145L216.241 46.3255V61.8919H207.421V27.1631H216.241V41.7683L225.652 27.1631H235.507L224.569 44.0325L236 61.8919Z" fill="white"/>
<path d="M35.2576 12.2284C35.2576 11.8646 35.2259 11.4966 35.2631 11.1369C35.3816 9.98762 35.1005 9.14044 34.1733 8.26443C32.1936 6.39433 32.3782 2.9864 34.5908 1.19319C36.4906 -0.347378 38.8203 -0.436626 40.7972 1.16573C42.3995 2.46464 42.7894 4.11231 42.4601 6.03459C42.2507 7.25386 41.6197 8.20951 40.5892 8.88917C40.3509 9.04707 40.2668 9.25303 40.2682 9.53863C40.2737 11.2096 40.3054 12.882 40.2407 14.5503C40.2172 15.1613 40.5066 15.4661 40.935 15.7023C43.0346 16.857 45.1122 18.0475 47.1677 19.2832C48.3924 20.0192 49.7136 20.5958 50.9232 21.3551C52.3574 22.2559 53.8563 23.033 55.3098 23.8939C56.7963 24.7754 58.2966 25.6308 59.7886 26.5027C60.2281 26.7595 60.6373 26.7485 61.0795 26.4821C62.4007 25.6858 63.7329 24.9072 65.0651 24.1301C65.3751 23.9488 65.506 23.7415 65.5694 23.3461C65.8311 21.7121 66.9843 19.9793 68.8744 19.3258C70.3265 18.8232 71.5912 19.0306 72.8697 19.7185C74.1014 20.3816 74.7916 21.4156 75.1718 22.7666C75.6072 24.3127 75.2738 25.6583 74.4058 26.916C73.2486 28.5939 71.0539 29.3669 69.1555 28.7175C68.3675 28.4484 67.7861 28.5445 67.038 28.9646C65.112 30.0466 63.259 31.2535 61.2999 32.2833C59.7487 33.0989 58.298 34.1053 56.7756 34.9786C54.5879 36.2336 52.3657 37.4309 50.1751 38.6817C48.6321 39.5632 47.1456 40.5477 45.5806 41.3853C44.0238 42.2187 42.551 43.195 40.9695 43.9913C39.9679 44.4953 39.0366 45.1516 38.0584 45.7145C37.8228 45.8505 37.6768 45.8615 37.4343 45.7187C35.303 44.4733 33.1594 43.2458 31.0171 42.0183C29.6187 41.2178 28.2149 40.4283 26.8165 39.6291C25.2267 38.7202 23.6437 37.8002 22.0525 36.8968C20.0507 35.7612 18.0393 34.6367 16.0568 33.4724C14.2975 32.4398 12.501 31.4622 10.794 30.3336C9.747 29.6402 8.61179 29.0855 7.52618 28.4497C7.27957 28.3056 7.10874 28.4717 6.93377 28.5403C5.13727 29.2488 3.46476 29.0415 1.92865 27.8689C0.566117 26.8281 -0.445103 24.4679 0.25476 22.5566C1.0304 20.4352 2.54034 19.3601 4.64819 19.0086C6.11681 18.7642 8.52775 20.0851 9.18629 21.4183C9.51417 22.0815 9.78007 22.7653 9.84895 23.5095C9.9137 24.2029 10.5874 24.2701 10.9883 24.4981C12.2516 25.2176 13.4695 26.0208 14.7811 26.6593C15.007 26.7691 15.0952 26.7444 15.2633 26.6496C16.539 25.937 17.8271 25.2491 19.0918 24.5187C20.6858 23.5987 22.3156 22.7364 23.8889 21.7877C25.8645 20.5958 27.8952 19.5043 29.8791 18.3289C31.1328 17.5861 32.4099 16.8858 33.676 16.165C34.0218 15.9686 34.3635 15.7641 34.7106 15.5677C35.1363 15.3261 35.292 14.9842 35.2576 14.4789C35.208 13.7319 35.2452 12.9795 35.2452 12.2298H35.2576V12.2284ZM37.7291 19.75C37.6699 19.7803 37.5955 19.8146 37.5252 19.8558C36.3005 20.5656 35.0743 21.2714 33.8537 21.9868C32.6482 22.6925 31.4565 23.4216 30.2442 24.1136C29.069 24.7837 27.8966 25.4578 26.7173 26.1169C25.6441 26.7169 24.5929 27.3554 23.5156 27.9472C22.5774 28.4635 21.6529 29.0058 20.7258 29.5427C20.4764 29.6868 20.2698 29.8448 20.6679 30.0782C21.8582 30.7729 23.021 31.5171 24.2361 32.1652C25.6565 32.9218 27.0121 33.7882 28.4229 34.5598C29.4465 35.12 30.4316 35.7434 31.4414 36.3242C33.2765 37.3787 35.1515 38.3632 36.9411 39.4987C37.3627 39.7665 37.7884 39.9697 38.3395 39.5825C39.2115 38.9715 40.1594 38.4675 41.0852 37.9362C43.3129 36.6606 45.553 35.4043 47.778 34.1232C50.0305 32.827 52.2665 31.502 54.5217 30.2114C54.7146 30.1015 54.9461 30.0081 54.9268 29.8049C54.9144 29.6676 54.6912 29.5207 54.5328 29.4301C53.7516 28.9811 52.9539 28.5609 52.1728 28.1106C49.861 26.776 47.5548 25.4317 45.2444 24.0944C43.0387 22.8174 40.8317 21.5446 38.626 20.2704C38.3353 20.1029 38.0446 19.934 37.7278 19.7514H37.7291V19.75Z" fill="#00BEED"/>
<path d="M62.8224 38.9207V45.7365C62.8238 48.4991 62.8431 51.2617 62.8183 54.0243C62.8128 54.5556 63.0759 54.7424 63.4741 54.9676C64.9482 55.7983 66.4003 56.6715 67.8578 57.5338C68.0245 57.6327 68.1417 57.7205 68.369 57.6011C70.233 56.6235 73.0586 57.1727 74.4459 59.1307C75.7189 60.928 75.5784 63.7579 74.1167 65.3712C72.677 66.9612 70.6325 67.2344 69.0564 66.8047C67.1924 66.2966 66.06 64.9181 65.6536 63.1002C65.4703 62.2805 65.13 61.9386 64.4729 61.5857C63.1875 60.895 61.9627 60.0877 60.7022 59.3462C60.0863 58.9837 59.6482 59.5137 59.2239 59.776C57.7016 60.7152 56.1324 61.5678 54.5811 62.4521C53.7256 62.9409 52.8783 63.4448 52.0434 63.9693C51.845 64.0943 51.6191 64.2741 51.44 64.1863C51.2568 64.097 51.3642 63.7977 51.3628 63.5931C51.3573 62.1363 51.4593 60.6712 51.3284 59.2268C51.2361 58.1942 51.7362 57.7411 52.4843 57.31C53.8881 56.5013 55.2768 55.6678 56.6683 54.8357C56.9604 54.6614 56.8874 54.3401 56.8887 54.0751C56.9039 52.3189 56.9039 50.5642 56.9094 48.808C56.9149 46.8377 56.9356 44.8674 56.9177 42.897C56.9135 42.4631 57.1271 42.2215 57.4384 42.0334C59.0627 41.0489 60.7421 40.1578 62.3223 39.0978C62.4394 39.0195 62.5951 38.9962 62.8197 38.9179L62.8224 38.9207Z" fill="#00BEED"/>
<path d="M12.6183 38.9179C13.6584 39.3271 14.4836 40.015 15.415 40.5107C16.2402 40.9487 17.0434 41.4306 17.8438 41.9125C18.2778 42.1734 18.5244 42.5057 18.5203 43.0947C18.4886 46.629 18.5382 50.1646 18.4886 53.6989C18.4775 54.4293 18.7214 54.8289 19.3 55.1653C20.7576 56.0138 22.1987 56.8898 23.6452 57.759C23.8643 57.8908 24.0448 58.0226 24.042 58.3467C24.0255 60.2909 24.0337 62.2365 24.0337 64.2961C23.0625 63.7496 22.1684 63.254 21.2825 62.7445C20.004 62.01 18.7407 61.2479 17.4525 60.5326C16.907 60.2291 16.2939 59.9614 15.8558 59.5755C15.1312 58.9357 14.5925 59.3751 14.1075 59.706C12.88 60.5422 11.5382 61.1779 10.2927 61.9811C10.0089 62.1637 9.90146 62.3601 9.87529 62.599C9.74716 63.7867 9.23329 64.7945 8.42045 65.6211C7.66686 66.3886 6.7383 66.8774 5.63478 66.9543C4.4293 67.0381 3.28031 66.9118 2.24705 66.1895C0.608986 65.0444 -0.522093 62.6635 0.246655 60.5765C0.800484 59.0716 1.75384 57.9594 3.20041 57.402C4.37282 56.9489 5.64442 56.9406 6.83612 57.4803C7.19983 57.645 7.43541 57.6519 7.79636 57.4267C9.1892 56.5548 10.5944 55.6967 12.0507 54.9387C12.5356 54.6861 12.5631 54.384 12.5631 53.9817C12.5631 50.9418 12.5576 47.9004 12.5563 44.8605C12.5563 43.1469 12.5563 41.4333 12.5618 39.7198C12.5618 39.4671 12.5962 39.2159 12.6169 38.9179H12.6183Z" fill="#00BEED"/>
<path d="M29.6243 61.5829C30.3545 61.8095 30.9565 62.1816 31.5145 62.5537C32.9693 63.5258 34.5344 64.2989 36.0209 65.2106C36.3557 65.4165 36.769 65.5415 37.028 65.8161C37.6562 66.4861 38.199 66.0262 38.6757 65.7007C40.1333 64.7066 41.7328 63.9625 43.2124 63.0096C43.9109 62.5592 44.6383 62.1528 45.3589 61.7367C45.6743 61.5555 45.9209 61.4594 45.9113 62.0319C45.8838 63.681 45.8755 65.3314 45.9196 66.9791C45.9389 67.7219 45.3354 67.8015 44.9304 68.0473C43.5004 68.9137 42.0441 69.7362 40.5783 70.5421C40.3344 70.6767 40.373 70.8387 40.3716 71.009C40.362 72.8516 40.3799 74.6943 40.3482 76.5369C40.34 77.0353 40.745 77.1561 40.9875 77.3854C42.4271 78.7434 42.9176 80.3416 42.4836 82.2914C41.9133 84.8576 39.2599 86.4517 36.6739 85.8874C35.1516 85.5551 34.0329 84.7272 33.3537 83.4036C32.7007 82.1307 32.5739 80.7426 33.1236 79.3407C33.5122 78.3507 34.088 77.5379 34.9849 76.9694C35.1971 76.8349 35.1488 76.6385 35.1488 76.46C35.1516 74.6819 35.1392 72.9038 35.1488 71.1257C35.1502 70.8044 35.0304 70.6547 34.7466 70.4955C33.1044 69.5783 31.4842 68.624 29.853 67.6889C29.6808 67.5901 29.6243 67.4541 29.6243 67.2715V61.5816V61.5829Z" fill="#00BEED"/>
<path d="M51.7458 48.0226V49.8213C51.7486 51.0598 51.7417 51.0475 50.6933 51.6228C49.1599 52.4631 47.632 53.3144 46.1097 54.1753C44.276 55.212 42.4396 56.2459 40.6293 57.321C40.0217 57.6821 39.3852 57.9897 38.8011 58.4029C37.8491 59.0771 37.5763 58.9728 36.5293 58.3398C34.9601 57.391 33.3771 56.4614 31.7542 55.6033C30.4468 54.9113 29.2014 54.0998 27.9188 53.3597C26.6885 52.6498 25.45 51.9551 24.2045 51.274C23.8904 51.1024 23.6287 50.95 23.63 50.5353C23.6383 48.8863 23.6576 47.2359 23.6231 45.5882C23.6094 44.9044 23.951 45.0788 24.2693 45.2601C25.9735 46.2267 27.6625 47.2194 29.3626 48.1915C31.6275 49.4863 33.9516 50.6836 36.1422 52.0924C37.2732 52.8201 38.1012 52.875 39.2337 52.1308C40.9765 50.9871 42.8487 50.0452 44.6631 49.0126C46.8192 47.7851 48.9698 46.5494 51.1272 45.3218C51.7362 44.9758 51.743 44.9854 51.7444 45.709C51.7472 46.4807 51.7444 47.251 51.7444 48.0226H51.7458Z" fill="#00BEED"/>
<path d="M37.761 33.125C37.2981 33.0824 36.9963 32.779 36.6685 32.5785C35.328 31.7615 33.9048 31.086 32.5974 30.21C32.3095 30.0178 32.3026 29.9573 32.585 29.8063C34.1983 28.9344 35.8212 28.0817 37.3656 27.0876C37.6397 26.9105 37.8726 26.9545 38.1729 27.1357C39.4734 27.9211 40.8056 28.6529 42.12 29.415C42.4382 29.6003 42.7344 29.8242 43.0416 30.0315C42.7675 30.2388 42.5098 30.4791 42.2136 30.6494C40.8938 31.4087 39.5644 32.1501 38.2363 32.8957C38.0709 32.989 37.8946 33.0618 37.761 33.1263V33.125Z" fill="#00BEED"/>
</g>
<defs>
<clipPath id="clip0_715_11979">
<rect width="236" height="86" fill="white"/>
</clipPath>
</defs>
</svg>
