<svg width="72" height="97" viewBox="0 0 72 97" fill="none" xmlns="http://www.w3.org/2000/svg">
<path fill-rule="evenodd" clip-rule="evenodd" d="M25.4429 84.0318V87.7366C26.4764 87.7834 27.3546 87.331 27.3546 85.8647C27.3546 84.3984 26.4764 84.0006 25.4429 84.0318ZM25.4429 89.9517V93.7968C26.5541 93.8748 27.5411 92.9155 27.4944 91.7923C27.4478 90.716 26.5153 89.8737 25.4429 89.9517ZM27.7897 88.7193C27.7897 88.7193 30.0045 89.3433 30.0045 92.1433C30.0045 94.3584 27.9374 96.0977 25.948 96.0977H22.925V81.6764H25.4351C28.1006 81.7154 29.7092 83.2675 29.818 85.3812C29.8957 86.9021 29.1808 88.0876 27.7975 88.7271L27.7897 88.7193ZM0 81.6764H6.07706V84.063H4.25861V96.0977H1.74074V84.063H0V81.6764ZM11.478 80.4675V78.2758H13.6307V80.4675H11.478ZM10.6776 81.6764H13.1955V92.8999C13.1955 93.4926 13.6773 93.9762 14.2679 93.9762C14.8585 93.9762 15.3403 93.4926 15.3403 92.8999V81.6764H17.8582V92.7439C17.8582 94.7327 16.2495 96.3472 14.2679 96.3472C12.2862 96.3472 10.6776 94.7327 10.6776 92.7439V81.6764ZM14.9284 80.4675V78.2758H17.0733V80.4675H14.9284ZM41.9333 81.6764H48.0104V84.063H46.1919V96.0977H43.674V84.063H41.9333V81.6764ZM34.7372 78.2758H37.255V80.4675H34.7372V78.2758ZM34.7372 81.6764H37.255V96.0977H34.7372V81.6764ZM56.038 86.4965L55.2531 90.9812H56.8229L56.038 86.4965ZM51.9659 96.0977L54.8568 81.6764H57.2114L60.1023 96.0977H57.7166L57.2192 93.2664H54.8412L54.3439 96.0977H51.9581H51.9659ZM69.1713 81.6764H72L69.5365 87.7366L69.4899 87.799L72 96.1445L69.148 96.1055L67.6015 90.794L67.0731 92.2213V96.1055H64.5552V81.6842H67.0731V87.6118L69.1791 81.6842L69.1713 81.6764Z" fill="white"/>
<path fill-rule="evenodd" clip-rule="evenodd" d="M49.4712 37.921C49.4868 37.8664 49.4946 37.8118 49.5102 37.7572C49.5024 37.8118 49.4868 37.8664 49.4712 37.921Z" fill="white"/>
<path fill-rule="evenodd" clip-rule="evenodd" d="M45.0649 24.3654C45.2747 24.5526 45.4845 24.7476 45.6866 24.9426C45.4845 24.7398 45.2747 24.5526 45.0649 24.3654Z" fill="white"/>
<path fill-rule="evenodd" clip-rule="evenodd" d="M40.3633 21.6671C40.6741 21.7685 40.9694 21.8855 41.2725 22.0103C40.9772 21.8855 40.6741 21.7685 40.3633 21.6671Z" fill="white"/>
<path fill-rule="evenodd" clip-rule="evenodd" d="M26.1965 25.0602C25.9789 25.2786 25.7769 25.5048 25.5748 25.7309C25.7769 25.497 25.9789 25.2786 26.1965 25.0602Z" fill="white"/>
<path fill-rule="evenodd" clip-rule="evenodd" d="M49.4247 31.5411C49.5026 31.8453 49.565 32.1573 49.6118 32.4693C49.5572 32.1573 49.4948 31.8453 49.4247 31.5411Z" fill="white"/>
<path fill-rule="evenodd" clip-rule="evenodd" d="M48.1657 28.2499C48.0414 28.0237 47.917 27.8053 47.7772 27.5869C48.3134 28.4604 48.7563 29.4042 49.0905 30.3869C49.0827 30.3557 49.0749 30.3323 49.0594 30.3011C50.6914 27.8209 51.6394 24.8571 51.6394 21.6671H49.821C49.821 24.0459 49.2226 26.2922 48.1657 28.2499Z" fill="white"/>
<path fill-rule="evenodd" clip-rule="evenodd" d="M49.6887 32.9373C49.6809 32.8594 49.6654 32.7814 49.6498 32.7034C49.7586 33.3975 49.813 34.1073 49.813 34.8326C49.813 35.558 49.7586 36.1975 49.6654 36.8605C49.6654 36.8527 49.6654 36.8371 49.6654 36.8293C53.7841 33.0855 56.3641 27.6805 56.3641 21.6671H53.6909C53.6909 25.9412 52.1832 29.8721 49.6732 32.9373H49.6887Z" fill="white"/>
<path fill-rule="evenodd" clip-rule="evenodd" d="M45.8033 25.0521C46.0209 25.2705 46.223 25.4967 46.425 25.7229C46.223 25.4889 46.0209 25.2705 45.8033 25.0521Z" fill="white"/>
<path fill-rule="evenodd" clip-rule="evenodd" d="M49.145 30.566C49.2307 30.839 49.3087 31.112 49.3866 31.3928C49.3165 31.112 49.2385 30.839 49.145 30.566Z" fill="white"/>
<path fill-rule="evenodd" clip-rule="evenodd" d="M44.2333 23.6949C44.482 23.8821 44.7152 24.0693 44.9483 24.2642C44.7152 24.0615 44.4742 23.8743 44.2333 23.6949Z" fill="white"/>
<path fill-rule="evenodd" clip-rule="evenodd" d="M22.3264 36.8293C22.3264 36.8293 22.3264 36.8527 22.3264 36.8605C22.2332 36.1975 22.1788 35.519 22.1788 34.8326C22.1788 34.1073 22.2409 33.3975 22.342 32.7034C22.3264 32.7814 22.3109 32.8594 22.3031 32.9373C19.793 29.8721 18.2854 25.949 18.2854 21.6671H15.6121C15.6121 27.6805 18.1999 33.0855 22.3109 36.8293H22.3264Z" fill="white"/>
<path fill-rule="evenodd" clip-rule="evenodd" d="M24.8599 26.6198C25.0387 26.3702 25.2329 26.1285 25.435 25.8945C25.2329 26.1285 25.0464 26.3702 24.8599 26.6198Z" fill="white"/>
<path fill-rule="evenodd" clip-rule="evenodd" d="M24.3159 27.4234C24.4713 27.1816 24.6345 26.9398 24.7977 26.7058C24.6268 26.9398 24.4713 27.1816 24.3159 27.4234Z" fill="white"/>
<path fill-rule="evenodd" clip-rule="evenodd" d="M22.5287 37.9132C22.5131 37.8586 22.5053 37.8118 22.4897 37.7572C22.4975 37.8118 22.5131 37.8586 22.5287 37.9132Z" fill="white"/>
<path fill-rule="evenodd" clip-rule="evenodd" d="M57.5922 21.6673C57.5922 28.6244 54.3283 34.8094 49.2537 38.7794C49.2615 38.7404 49.2693 38.7014 49.2848 38.6702C47.6296 44.4652 42.3141 48.7081 36.0039 48.7081C29.6937 48.7081 24.3937 44.473 22.7307 38.6858C22.7385 38.717 22.7462 38.7482 22.754 38.7794C17.6794 34.8172 14.4155 28.6244 14.4155 21.6673H0.00775146L36.0039 72.0988L72 21.6673H57.5922Z" fill="white"/>
<path fill-rule="evenodd" clip-rule="evenodd" d="M22.3809 32.4693C22.4355 32.1573 22.4979 31.8453 22.568 31.5411C22.4901 31.8453 22.4355 32.1573 22.3809 32.4693Z" fill="white"/>
<path fill-rule="evenodd" clip-rule="evenodd" d="M29.7092 22.478C29.9812 22.3376 30.2687 22.205 30.5562 22.0802C30.2687 22.205 29.9889 22.3376 29.7092 22.478Z" fill="white"/>
<path fill-rule="evenodd" clip-rule="evenodd" d="M28.7843 23.0008C29.033 22.8448 29.2972 22.6966 29.5536 22.5641C29.2894 22.7044 29.033 22.8526 28.7843 23.0008Z" fill="white"/>
<path fill-rule="evenodd" clip-rule="evenodd" d="M22.9325 30.3011C22.9325 30.3011 22.917 30.3557 22.9014 30.3869C23.2356 29.3964 23.6785 28.4604 24.2148 27.5869C24.0826 27.8053 23.9505 28.0237 23.8262 28.2499C22.7693 26.2922 22.1709 24.0537 22.1709 21.6671H20.3525C20.3525 24.8571 21.3006 27.8209 22.9325 30.3011Z" fill="white"/>
<path fill-rule="evenodd" clip-rule="evenodd" d="M30.7271 22.0103C31.0224 21.8855 31.3255 21.7685 31.6363 21.6671C31.3255 21.7685 31.0302 21.8855 30.7271 22.0103Z" fill="white"/>
<path fill-rule="evenodd" clip-rule="evenodd" d="M26.3052 24.9506C26.5073 24.7479 26.7171 24.5607 26.9269 24.3735C26.7093 24.5607 26.5073 24.7557 26.3052 24.9506Z" fill="white"/>
<path d="M21.8135 28.2729C21.8135 28.2729 21.8447 28.3431 21.8603 28.3821C21.8447 28.3509 21.8291 28.3119 21.8135 28.2729Z" fill="white"/>
<path d="M21.0134 26.167C21.0134 26.167 21.029 26.2372 21.0445 26.2684C21.0368 26.2372 21.029 26.1982 21.0134 26.167Z" fill="white"/>
<path d="M21.3784 27.2438C21.4018 27.3062 21.4252 27.3686 21.4564 27.431C21.433 27.3686 21.4018 27.3062 21.3784 27.2438Z" fill="white"/>
<path d="M20.3527 29.9812C20.4073 30.0904 20.4697 30.1918 20.5242 30.301C20.4697 30.1996 20.4073 30.0904 20.3527 29.9812Z" fill="white"/>
<path d="M20.5236 23.9525C20.5236 23.9525 20.5236 24.0071 20.5314 24.0305C20.5314 24.0071 20.5314 23.9759 20.5236 23.9525Z" fill="white"/>
<path d="M20.3993 22.7199C20.3993 22.8057 20.4149 22.8993 20.4227 22.9851C20.4227 22.8993 20.4071 22.8057 20.3993 22.7199Z" fill="white"/>
<path d="M51.5774 22.9932C51.5774 22.9074 51.593 22.8138 51.6008 22.728C51.6008 22.8138 51.5852 22.9074 51.5774 22.9932Z" fill="white"/>
<path d="M51.4608 24.0305C51.4608 24.0305 51.4608 23.9759 51.4686 23.9525C51.4686 23.9759 51.4686 24.0071 51.4608 24.0305Z" fill="white"/>
<path d="M19.9874 29.2635C20.0341 29.3727 20.0887 29.4741 20.1433 29.5755C20.0887 29.4741 20.0419 29.3649 19.9874 29.2635Z" fill="white"/>
<path d="M50.1395 28.3821C50.1395 28.3821 50.1707 28.3119 50.1863 28.2729C50.1707 28.3041 50.1551 28.3431 50.1395 28.3821Z" fill="white"/>
<path d="M50.5437 27.431C50.5671 27.3686 50.5983 27.3062 50.6217 27.2438C50.5983 27.3062 50.5749 27.3686 50.5437 27.431Z" fill="white"/>
<path d="M50.9556 26.2764C50.9556 26.2764 50.9712 26.2062 50.9867 26.175C50.979 26.2062 50.9712 26.2452 50.9556 26.2764Z" fill="white"/>
<path d="M18.3789 23.375C18.3867 23.4842 18.4023 23.5934 18.4179 23.7025C18.4023 23.5934 18.3945 23.4842 18.3789 23.375Z" fill="white"/>
<path d="M18.7828 32.602C18.8607 32.7268 18.9387 32.8438 19.0166 32.9686C18.9387 32.8516 18.8607 32.7268 18.7828 32.602Z" fill="white"/>
<path d="M20.9362 31.0028C20.8739 30.9014 20.8115 30.8 20.7491 30.6909C20.8115 30.7923 20.8739 30.9014 20.9362 31.0028Z" fill="white"/>
<path d="M18.4807 32.1106C18.4027 31.9858 18.3325 31.8532 18.2546 31.7206C18.3247 31.8532 18.4027 31.978 18.4807 32.1106Z" fill="white"/>
<path d="M18.4797 24.2173C18.4953 24.3343 18.5109 24.4435 18.5343 24.5527C18.5187 24.4435 18.4953 24.3265 18.4797 24.2173Z" fill="white"/>
<path d="M18.7986 25.8866C18.822 25.9958 18.8454 26.0972 18.8765 26.1986C18.8454 26.0972 18.822 25.988 18.7986 25.8866Z" fill="white"/>
<path d="M19.6611 28.5148C19.7001 28.6162 19.7469 28.7098 19.7937 28.8112C19.7469 28.7098 19.7079 28.6162 19.6611 28.5148Z" fill="white"/>
<path d="M19.0237 26.729C19.0471 26.8148 19.0705 26.9084 19.1017 26.9942C19.0705 26.9084 19.0471 26.8226 19.0237 26.729Z" fill="white"/>
<path d="M53.1238 26.1986C53.155 26.0972 53.1784 25.988 53.2018 25.8866C53.1784 25.9958 53.155 26.0972 53.1238 26.1986Z" fill="white"/>
<path d="M53.4656 24.5608C53.4812 24.4516 53.5046 24.3346 53.5202 24.2254C53.5046 24.3424 53.489 24.4516 53.4656 24.5608Z" fill="white"/>
<path d="M52.8906 26.9942C52.9218 26.9084 52.9452 26.8226 52.9686 26.729C52.9452 26.8148 52.9218 26.9084 52.8906 26.9942Z" fill="white"/>
<path d="M51.8572 29.5755C51.9117 29.4741 51.9585 29.3649 52.0131 29.2635C51.9663 29.3727 51.9117 29.4741 51.8572 29.5755Z" fill="white"/>
<path d="M52.2067 28.8112C52.2535 28.7098 52.2925 28.6162 52.3393 28.5148C52.3003 28.6162 52.2535 28.7098 52.2067 28.8112Z" fill="white"/>
<path d="M51.6478 29.9812C51.5933 30.0904 51.5309 30.1918 51.4763 30.301C51.5309 30.1996 51.5933 30.0904 51.6478 29.9812Z" fill="white"/>
<path d="M15.6201 21.667C15.6201 10.3733 24.7435 1.21672 35.9962 1.21672C47.2489 1.21672 56.3722 10.3733 56.3722 21.667H57.5845C57.5845 9.70257 47.9172 0 35.9962 0C24.0752 0 14.4078 9.70257 14.4078 21.667H15.6201Z" fill="white"/>
<path d="M21.5731 36.1114C21.5731 36.1114 21.5107 36.0412 21.4796 36.01C21.5107 36.0412 21.5419 36.0802 21.5731 36.1114Z" fill="white"/>
<path d="M53.5822 23.7025C53.5978 23.5934 53.6056 23.4842 53.6212 23.375C53.6134 23.4842 53.5978 23.5934 53.5822 23.7025Z" fill="white"/>
<path d="M35.9961 3.89178C26.2199 3.89178 18.2933 11.8473 18.2933 21.659H20.3605C20.3605 12.986 27.3623 5.95865 36.0039 5.95865C44.6454 5.95865 51.6472 12.986 51.6472 21.659H53.7144C53.7144 11.8473 45.7878 3.89178 36.0116 3.89178H35.9961Z" fill="white"/>
<path d="M22.2255 22.728C22.2411 22.9152 22.2566 23.1024 22.28 23.2818C22.2566 23.0946 22.2411 22.9152 22.2255 22.728Z" fill="white"/>
<path d="M49.7199 23.2892C49.7433 23.102 49.7589 22.9226 49.7745 22.7354C49.7589 22.9226 49.7433 23.1098 49.7199 23.2892Z" fill="white"/>
<path d="M48.9116 26.6117C48.974 26.4401 49.0364 26.2685 49.0987 26.0969C49.0364 26.2685 48.9818 26.4401 48.9116 26.6117Z" fill="white"/>
<path d="M49.1682 25.8711C49.2461 25.6215 49.3163 25.372 49.3864 25.1224C49.3241 25.372 49.2461 25.6215 49.1682 25.8711Z" fill="white"/>
<path d="M22.6141 25.1224C22.6764 25.372 22.7544 25.6215 22.8324 25.8711C22.7544 25.6215 22.6842 25.372 22.6141 25.1224Z" fill="white"/>
<path d="M22.9016 26.0894C22.964 26.261 23.0185 26.4326 23.0887 26.6042C23.0263 26.4326 22.964 26.261 22.9016 26.0894Z" fill="white"/>
<path d="M23.8342 28.25C26.1655 32.5865 30.7428 35.5425 36.0038 35.5425C41.2649 35.5425 45.8344 32.5943 48.1735 28.25C46.5183 25.1692 43.7284 22.7903 40.3713 21.6672H49.8288C49.8288 14.0081 43.6429 7.79971 36.0116 7.79971C28.3803 7.79971 22.1945 14.0081 22.1945 21.6672H31.652C28.2948 22.7903 25.505 25.1692 23.8497 28.25H23.8342Z" fill="white"/>
<path d="M49.5878 29.4356C49.619 29.3888 49.6423 29.342 49.6735 29.2952C49.6501 29.342 49.619 29.3888 49.5878 29.4356Z" fill="white"/>
<path d="M18.4255 34.2473C18.2701 34.0289 18.1147 33.8027 17.967 33.5765C18.1147 33.8027 18.2701 34.0211 18.4255 34.2473Z" fill="white"/>
<path d="M17.757 33.2494C17.6249 33.0388 17.4928 32.8204 17.3607 32.602C17.4851 32.8204 17.6172 33.0388 17.757 33.2494Z" fill="white"/>
<path d="M49.6734 36.8294C46.0598 40.1208 41.2572 42.1253 35.9883 42.1253C30.7195 42.1253 25.9247 40.1208 22.3033 36.8294C22.3965 37.4924 22.5442 38.1397 22.7229 38.7715C26.3832 41.6339 30.9759 43.342 35.9728 43.342C40.9697 43.342 45.5702 41.6339 49.2304 38.7715C49.4169 38.1397 49.5568 37.4924 49.6501 36.8294H49.6734Z" fill="white"/>
<path d="M19.2569 35.3471C19.0393 35.0741 18.8217 34.7934 18.6119 34.5126C18.8217 34.7934 19.0315 35.0741 19.2569 35.3471Z" fill="white"/>
<path d="M15.0374 26.8772C15.0997 27.1346 15.1699 27.3842 15.24 27.6416C15.1699 27.392 15.0997 27.1346 15.0374 26.8772Z" fill="white"/>
<path d="M16.1406 30.1765C15.9851 29.8177 15.8452 29.4589 15.7131 29.0923C15.8452 29.4589 15.9929 29.8177 16.1406 30.1765Z" fill="white"/>
<path d="M15.3481 28C15.4495 28.3431 15.5664 28.6785 15.6834 29.0139C15.5586 28.6785 15.4495 28.3431 15.3481 28Z" fill="white"/>
<path d="M20.2129 36.4392C20.4227 36.6654 20.6403 36.8916 20.8657 37.11C20.6403 36.8916 20.4305 36.6654 20.2129 36.4392Z" fill="white"/>
<path d="M14.6019 24.5294C14.6331 24.7789 14.672 25.0207 14.711 25.2703C14.672 25.0285 14.6331 24.7789 14.6019 24.5294Z" fill="white"/>
<path d="M14.4701 23.2658C14.4935 23.5388 14.5091 23.804 14.5403 24.077C14.5091 23.8118 14.4857 23.5388 14.4701 23.2658Z" fill="white"/>
<path d="M53.5822 34.232C53.7299 34.0214 53.8853 33.803 54.0252 33.5846C53.8853 33.803 53.7299 34.0136 53.5822 34.232Z" fill="white"/>
<path d="M51.9269 36.2911C52.1834 36.0104 52.4398 35.714 52.6807 35.4176C52.4398 35.714 52.1834 36.0026 51.9269 36.2911Z" fill="white"/>
<path d="M57.5225 23.2658C57.4991 23.5388 57.4835 23.804 57.4523 24.077C57.4835 23.8118 57.5069 23.5388 57.5225 23.2658Z" fill="white"/>
<path d="M52.7662 35.3158C52.9761 35.0584 53.1781 34.7933 53.3802 34.5281C53.1859 34.7933 52.9761 35.0584 52.7662 35.3158Z" fill="white"/>
<path d="M57.2118 25.7228C57.1651 25.9646 57.1183 26.2064 57.0637 26.4404C57.1183 26.1986 57.1651 25.9646 57.2118 25.7228Z" fill="white"/>
<path d="M57.3983 24.5294C57.3671 24.7789 57.3282 25.0207 57.2892 25.2625C57.3282 25.0207 57.3671 24.7711 57.3983 24.5294Z" fill="white"/>
<path d="M55.8591 30.1761C56.0067 29.8251 56.1544 29.4664 56.2865 29.0998C56.1544 29.4664 56.0145 29.8251 55.8591 30.1761Z" fill="white"/>
<path d="M55.3774 31.2213C55.5021 30.9717 55.6112 30.7221 55.7282 30.4725C55.619 30.7221 55.5021 30.9717 55.3774 31.2213Z" fill="white"/>
<path d="M54.2506 33.2412C54.3827 33.0306 54.5071 32.8279 54.6314 32.6095C54.5071 32.8201 54.3827 33.0306 54.2506 33.2412Z" fill="white"/>
<path d="M54.8411 32.243C54.9659 32.0246 55.075 31.8062 55.1919 31.5878C55.075 31.8062 54.9581 32.0246 54.8411 32.243Z" fill="white"/>
<path d="M16.3118 26.9393C16.3507 27.0875 16.3975 27.2357 16.4365 27.3838C16.3897 27.2357 16.3507 27.0875 16.3118 26.9393Z" fill="white"/>
<path d="M52.9762 32.9686C53.0542 32.8516 53.1321 32.7268 53.2101 32.602C53.1321 32.7268 53.0542 32.8438 52.9762 32.9686Z" fill="white"/>
<path d="M56.3178 23.1097C56.3256 22.9927 56.3412 22.8757 56.3412 22.7509C56.3412 22.8679 56.3256 22.9849 56.3178 23.1097Z" fill="white"/>
<path d="M53.5202 32.1106C53.5982 31.9858 53.6683 31.8532 53.7463 31.7206C53.6761 31.8532 53.5982 31.978 53.5202 32.1106Z" fill="white"/>
<path d="M50.4193 36.1114C50.4193 36.1114 50.4817 36.0412 50.5129 36.01C50.4817 36.0412 50.4505 36.0802 50.4193 36.1114Z" fill="white"/>
<path d="M22.4123 29.4356C22.3811 29.3888 22.3577 29.342 22.3265 29.2952C22.3499 29.342 22.3811 29.3888 22.4123 29.4356Z" fill="white"/>
<path d="M35.9961 39.4341C41.5136 39.4341 46.4406 36.8993 49.6889 32.9293C49.5646 32.0168 49.3548 31.1354 49.0595 30.2931C49.075 30.2697 49.0905 30.2385 49.1061 30.2151C46.3162 34.5126 41.4903 37.3594 35.9961 37.3594C30.5019 37.3594 25.676 34.5126 22.8861 30.2151C22.9017 30.2385 22.9172 30.2697 22.9327 30.2931C22.6452 31.1354 22.4276 32.0168 22.3033 32.9293C25.5516 36.8993 30.4786 39.4341 35.9961 39.4341Z" fill="white"/>
<path d="M51.0644 31.0028C51.1268 30.9014 51.1891 30.8 51.2515 30.6909C51.1891 30.7923 51.1268 30.9014 51.0644 31.0028Z" fill="white"/>
<path d="M50.8777 37.3598C50.6912 37.5392 50.5047 37.7107 50.3104 37.8823C50.5047 37.7107 50.6912 37.5314 50.8777 37.3598Z" fill="white"/>
<path d="M50.1628 32.329C50.2251 32.251 50.2797 32.1652 50.3343 32.0872C50.2797 32.1652 50.2174 32.251 50.1628 32.329Z" fill="white"/>
<path d="M55.5638 27.3919C55.6106 27.2437 55.6495 27.0955 55.6885 26.9473C55.6495 27.0955 55.6028 27.2437 55.5638 27.3919Z" fill="white"/>
<path d="M16.6071 27.9454C16.6538 28.0936 16.7084 28.2418 16.7552 28.3822C16.7006 28.234 16.6538 28.0858 16.6071 27.9454Z" fill="white"/>
<path d="M16.9488 28.9205C17.0034 29.0687 17.0579 29.2091 17.1203 29.3495C17.0657 29.2091 17.0034 29.0609 16.9488 28.9205Z" fill="white"/>
<path d="M21.8375 32.329C21.7751 32.251 21.7205 32.1652 21.666 32.0872C21.7205 32.1652 21.7829 32.251 21.8375 32.329Z" fill="white"/>
<path d="M16.0708 25.9257C16.102 26.0739 16.141 26.2221 16.1721 26.3703C16.1332 26.2221 16.102 26.0739 16.0708 25.9257Z" fill="white"/>
<path d="M55.8281 26.3703C55.867 26.2221 55.8982 26.0739 55.9294 25.9257C55.8982 26.0739 55.8592 26.2221 55.8281 26.3703Z" fill="white"/>
<path d="M54.8799 29.3495C54.9345 29.2091 54.9969 29.0609 55.0514 28.9205C54.9969 29.0687 54.9423 29.2091 54.8799 29.3495Z" fill="white"/>
<path d="M55.2453 28.3822C55.2999 28.234 55.3466 28.0936 55.3934 27.9454C55.3466 28.0936 55.2921 28.2418 55.2453 28.3822Z" fill="white"/>
<path d="M15.6511 22.7509C15.6511 22.8679 15.6667 22.9849 15.6745 23.1097C15.6667 22.9927 15.6511 22.8757 15.6511 22.7509Z" fill="white"/>
<path d="M17.7726 30.8156C17.8427 30.9481 17.9051 31.0885 17.9831 31.2211C17.9129 31.0885 17.8427 30.9559 17.7726 30.8156Z" fill="white"/>
<path d="M54.0174 31.2137C54.0876 31.0811 54.1577 30.9485 54.2279 30.8081C54.1577 30.9407 54.0954 31.0811 54.0174 31.2137Z" fill="white"/>
</svg>
